<svg xmlns="http://www.w3.org/2000/svg" width="7" height="10" viewBox="0 0 7 10"><path d="M2,0 3,0 3,1 2,1 M2,1 3,1 3,2 2,2 M3,1 4,1 4,2 3,2 M4,1 5,1 5,2 4,2 M5,1 6,1 6,2 5,2 M6,1 7,1 7,2 6,2 M6,0 7,0 7,1 6,1 M3,2 4,2 4,3 3,3 M3,3 4,3 4,4 3,4 M4,3 5,3 5,4 4,4 M4,2 5,2 5,3 4,3 M6,2 7,2 7,3 6,3 M6,3 7,3 7,4 6,4 M6,4 7,4 7,5 6,5 M5,4 6,4 6,5 5,5 M4,4 5,4 5,5 4,5 M3,4 4,4 4,5 3,5 M2,4 3,4 3,5 2,5 M4,5 5,5 5,6 4,6 M4,6 5,6 5,7 4,7 M5,5 6,5 6,6 5,6 M5,6 6,6 6,7 5,7 M6,6 7,6 7,7 6,7 M1,6 2,6 2,7 1,7 M0,6 1,6 1,7 0,7 M2,7 3,7 3,8 2,8 M1,8 2,8 2,9 1,9 M2,9 3,9 3,10 2,10 M3,9 4,9 4,10 3,10 M4,9 5,9 5,10 4,10 M5,9 6,9 6,10 5,10 M6,9 7,9 7,10 6,10 M6,8 7,8 7,9 6,9 M6,7 7,7 7,8 6,8 M5,7 6,7 6,8 5,8 M5,8 6,8 6,9 5,9 M4,7 5,7 5,8 4,8 M4,8 5,8 5,9 4,9 " fill="#000000"></path></svg>